# xmcd
#
# Track frame offsets:
#	150
#	13836
#	28742
#	43251
#	55155
#	69132
#	83526
#	99311
#	112014
#	127284
#
# Disc length: 1942 seconds
#
# Revision: 0
# Processed by: cddbd v1.5.2PL0 Copyright (c) Steve Scherf et al.
# Submitted via: dBpowerAMP V4.0
#
DISCID=8207940a
DTITLE=ColdFusion - Wrap It Up
DYEAR=2006
DGENRE=Post-Nu Metal
TTITLE0=Broken Days
TTITLE1=Get Out
TTITLE2=It's All For You
TTITLE3=Take It Off For Me
TTITLE4=Do It All Again
TTITLE5=Choices
TTITLE6=Enter The Moonlight
TTITLE7=Wish I Could
TTITLE8=When I Go Crazy
TTITLE9=One Hundred Angels
EXTD=
EXTT0=
EXTT1=
EXTT2=
EXTT3=
EXTT4=
EXTT5=
EXTT6=
EXTT7=
EXTT8=
EXTT9=
PLAYORDER=
